# xmcd CD database file
#
# Track frame offsets:
#	150
#	16775
#	41448
#	66279
#	85878
#	107145
#	134573
#	164358
#	187735
#	216400
#
# Disc length: 3900 seconds
#
# Revision: 2
# Processed by: cddbd v1.5.1PL2 Copyright (c) Steve Scherf et al.
# Submitted via: CDex 1.51
#
DISCID=850f3a0a
DTITLE=Stephan Rigert - Different Moods
DYEAR=2006
DGENRE=Blues
TTITLE0=The Horizon
TTITLE1=Damse
TTITLE2=Sei Diner Katha
TTITLE3=Bondhu Bine
TTITLE4=Little Surya
TTITLE5=Ogo Shefali Bonero
TTITLE6=Bhalobasar Khonje
TTITLE7=Mister Herrera
TTITLE8=Hiero
TTITLE9=All the Birds
EXTD=YEAR: 2006
EXTT0=
EXTT1=
EXTT2=
EXTT3=
EXTT4=
EXTT5=
EXTT6=
EXTT7=
EXTT8=
EXTT9=
PLAYORDER=
